# xmcd
#
# Track frame offsets:
#	150
#	11280
#	26730
#	43440
#	60690
#	70380
#	85650
#	109020
#	129150
#	146220
#	158610
#	169200
#	177090
#	201720
#	210150
#	220740
#	230610
#	241200
#
# Disc length: 3408 seconds
#
# Revision: 4
# Processed by: cddbd v1.5.2PL0 Copyright (c) Steve Scherf et al.
# Submitted via: audiograbber 1.83.01
#
DISCID=fc0d4e12
DTITLE=Orlando Sant'Helena - Festa Brasileira
DYEAR=2007
DGENRE=Sertanejo
TTITLE0=Bicho Com Bicha Pode
TTITLE1=Macuco Chorão
TTITLE2=Vovó
TTITLE3=É Muita Coceira Pr'um Socó Coçar
TTITLE4=Mariquinha
TTITLE5=Contra Dança
TTITLE6=São João
TTITLE7=Velhor Tropeiro
TTITLE8=Nina Rosa
TTITLE9=Capiau
TTITLE10=Pudim De Coco
TTITLE11=Catarina
TTITLE12=Curió
TTITLE13=Maestro Lampião
TTITLE14=Fingição
TTITLE15=Modinha
TTITLE16=Vou M'imbora
TTITLE17=Batuque Beira Mar
EXTD=
EXTT0=
EXTT1=
EXTT2=
EXTT3=
EXTT4=
EXTT5=
EXTT6=
EXTT7=
EXTT8=
EXTT9=
EXTT10=
EXTT11=
EXTT12=
EXTT13=
EXTT14=
EXTT15=
EXTT16=
EXTT17=
PLAYORDER=
